<?xml version="1.0" encoding="utf-8"?>
<!-- Generator: Adobe Illustrator 27.0.0, SVG Export Plug-In . SVG Version: 6.00 Build 0)  -->
<svg version="1.1" id="Layer_1" xmlns="http://www.w3.org/2000/svg" xmlns:xlink="http://www.w3.org/1999/xlink" x="0px" y="0px"
	 viewBox="0 0 48.1 36.1" style="enable-background:new 0 0 48.1 36.1;" xml:space="preserve">
<style type="text/css">
	.st0{fill:#1D1D1D;}
</style>
<g>
	<path class="st0" d="M15.6,0.1c0,2.7,0,5,0,7.6c-0.8,0.1-1.5,0.2-2.3,0.2c-4.6,0-6.1,1.7-5.9,6.5c0,0.3,0.1,0.7,0.2,1.3
		c4.2,0,8.3,0,12.7,0c0,7,0,13.7,0,20.5c-6.7,0-13.4,0-20.2,0c-0.1-0.7-0.1-1.3-0.1-2c0-7.2,0-14.5,0-21.7C0.1,5.7,4.4,0.8,10.9,0.1
		C12.4,0,13.8,0.1,15.6,0.1z"/>
	<path class="st0" d="M43.2,0.2c0,2.6,0,4.9,0,7.3c-2.6,0.7-5.5-0.5-7.3,2.3c-1.1,1.7-0.6,3.6-0.7,5.8c4.4,0,8.6,0,13,0
		c0,7,0,13.6,0,20.5c-6.7,0-13.4,0-20.4,0c0-1.1,0-2,0-3c0-6.4,0.3-12.9-0.1-19.3C27.2,5.6,33-0.5,41.2,0
		C41.8,0.1,42.4,0.1,43.2,0.2z"/>
</g>
</svg>
