<?xml version="1.0" encoding="utf-8"?>
<!-- Generator: Adobe Illustrator 27.0.0, SVG Export Plug-In . SVG Version: 6.00 Build 0)  -->
<svg version="1.1" id="Layer_1" xmlns="http://www.w3.org/2000/svg" xmlns:xlink="http://www.w3.org/1999/xlink" x="0px" y="0px"
	 viewBox="0 0 511.4 157.2" style="enable-background:new 0 0 511.4 157.2;" xml:space="preserve">
<style type="text/css">
	.st0{fill:#FFFFFF;}
</style>
<g>
	<path class="st0" d="M502.9,59.7c-34-34.5-94-36.9-140.4-43.7C316.4,9.3,270.4,4,223.8,4c-40.3,0.1-82-3.2-122.1,1.2
		C76.2,8.1,49.9,9,28.9,24.5C16.5,33.7,5.4,41.5,3.2,57.3c-3.1,22.6,17.4,40.3,35.1,50.9c57.1,34.1,124.1,41.8,189.4,45.3
		c67.5,3.6,130.2-5.9,196.7-15.4c29.8-4.2,99-28.4,81-71.9"/>
	<g>
		<path d="M505,57.6c-24-24-58.5-32.5-91-37.6c-16.9-2.7-33.8-4.4-50.7-6.9c-22.3-3.2-44.6-6.2-67-8.4C250.6,0.4,204.5,0.4,158.7,0
			c-22.5-0.2-44.7,1-67.1,3.3C73.2,5.2,54.2,7.2,37.4,15.8c-7.7,3.9-14.8,9.4-21.4,15C10.3,35.5,5.3,41.2,2.5,48.2
			c-6.3,15.8-0.2,31.9,10.7,43.9c12,13.3,28.5,22.3,44.5,29.8c18.3,8.7,37.5,15.2,57.1,20c39.4,9.7,80.4,13.3,120.8,14.9
			c45.3,1.8,90.5-2.4,135.3-8.3c31.1-4.1,63.3-6.3,92.6-18.4c20.2-8.4,45.8-23,47.7-47.5c0.5-5.9-0.8-11.8-3-17.2
			c-1.4-3.5-7.2-2-5.7,1.6c9.8,24.4-10.3,42.2-30.2,52.5c-24.7,12.8-51.2,16.1-78.5,20c-41.9,5.9-84,11-126.3,11.8
			c-40.1,0.7-81-2.1-120.6-8.7c-37.8-6.3-75.4-17.4-108.3-37.6C25.3,96.7,10.7,85.1,6.8,69.1C2.2,51,14.8,38.7,28.1,28.8
			c15.5-11.5,33-16,51.9-18.3c20-2.4,40.1-4.2,60.2-4.5c21.4-0.3,42.8,0.5,64.3,0.8c21.8,0.4,43.6,0.3,65.4,1.7
			c39.7,2.6,79,8.8,118.4,13.8c31.8,4.1,65.8,8.3,93.9,25c6.8,4,13,8.8,18.6,14.4C503.5,64.5,507.7,60.3,505,57.6L505,57.6z"/>
	</g>
</g>
</svg>
