<?xml version="1.0" encoding="utf-8"?>
<!-- Generator: Adobe Illustrator 27.0.0, SVG Export Plug-In . SVG Version: 6.00 Build 0)  -->
<svg version="1.1" id="Layer_1" xmlns="http://www.w3.org/2000/svg" xmlns:xlink="http://www.w3.org/1999/xlink" x="0px" y="0px"
	 viewBox="0 0 1560.3 1120.1" style="enable-background:new 0 0 1560.3 1120.1;" xml:space="preserve">
<style type="text/css">
	.st0{clip-path:url(#SVGID_00000025428100450847440500000011027261072969101719_);}
	.st1{fill:#EEEEEF;}
	.st2{clip-path:url(#SVGID_00000030459402542514223640000004998623970953016483_);}
	.st3{clip-path:url(#SVGID_00000170238038318683021800000004938713009983076535_);}
	.st4{clip-path:url(#SVGID_00000013880249450566578000000002651229977925595542_);}
	.st5{clip-path:url(#SVGID_00000130630669251185735930000014941405324893914295_);}
	.st6{clip-path:url(#SVGID_00000112608775339963052890000001269603492567938446_);}
	.st7{clip-path:url(#SVGID_00000018931318047811086240000013950140250800924544_);}
</style>
<g>
	<g>
		<defs>
			<rect id="SVGID_1_" x="2.9" y="5.9" width="1557.8" height="1101.5"/>
		</defs>
		<clipPath id="SVGID_00000061469092662848236020000001233562272672154299_">
			<use xlink:href="#SVGID_1_"  style="overflow:visible;"/>
		</clipPath>
		<g style="clip-path:url(#SVGID_00000061469092662848236020000001233562272672154299_);">
			<g>
				<path class="st1" d="M504.3,107H-69.2c-14.8,0-26.9-12.1-26.9-26.9l0,0c0-14.8,12.1-26.9,26.9-26.9h573.5
					c14.8,0,26.9,12.1,26.9,26.9l0,0C531.2,94.9,519.1,107,504.3,107z"/>
				<path class="st1" d="M563.1,214.6H55.8c-14.8,0-26.9-12.1-26.9-26.9l0,0c0-14.8,12.1-26.9,26.9-26.9h507.4
					c14.8,0,26.9,12.1,26.9,26.9l0,0C590,202.5,577.9,214.6,563.1,214.6z"/>
				<path class="st1" d="M424.6,133.9L424.6,133.9c0-14.8,12.1-26.9,26.9-26.9H94.1c14.8,0,26.9,12.1,26.9,26.9l0,0
					c0,14.8-12.1,26.9-26.9,26.9h357.3C436.7,160.8,424.6,148.7,424.6,133.9z"/>
			</g>
		</g>
	</g>
	<g>
		<defs>
			<rect id="SVGID_00000016778056682778177650000000781365435710269583_" x="2.9" y="5.9" width="1557.8" height="1101.5"/>
		</defs>
		<clipPath id="SVGID_00000049224069550349456690000007596232894756649888_">
			<use xlink:href="#SVGID_00000016778056682778177650000000781365435710269583_"  style="overflow:visible;"/>
		</clipPath>
		<g style="clip-path:url(#SVGID_00000049224069550349456690000007596232894756649888_);">
			<g>
				<path class="st1" d="M1447.6,317.3H976.2c-14.8,0-26.9-12.1-26.9-26.9l0,0c0-14.8,12.1-26.9,26.9-26.9h471.4
					c14.8,0,26.9,12.1,26.9,26.9l0,0C1474.5,305.2,1462.4,317.3,1447.6,317.3z"/>
				<path class="st1" d="M1710.6,424.9h-610c-14.8,0-26.9-12.1-26.9-26.9l0,0c0-14.8,12.1-26.9,26.9-26.9h610
					c14.8,0,26.9,12.1,26.9,26.9l0,0C1737.5,412.8,1725.4,424.9,1710.6,424.9z"/>
				<path class="st1" d="M1335.9,344.2L1335.9,344.2c0-14.8,12.1-26.9,26.9-26.9H1139c14.8,0,26.9,12.1,26.9,26.9l0,0
					c0,14.8-12.1,26.9-26.9,26.9h223.8C1348,371.1,1335.9,359,1335.9,344.2z"/>
			</g>
		</g>
	</g>
	<g>
		<defs>
			<rect id="SVGID_00000083083203888770588490000005362591432905798575_" x="2.9" y="5.9" width="1557.8" height="1101.5"/>
		</defs>
		<clipPath id="SVGID_00000116198917201697896970000017362783116670255038_">
			<use xlink:href="#SVGID_00000083083203888770588490000005362591432905798575_"  style="overflow:visible;"/>
		</clipPath>
		<g style="clip-path:url(#SVGID_00000116198917201697896970000017362783116670255038_);">
			<g>
				<path class="st1" d="M1276.8,1062.1H500.1c-14.8,0-26.9-12.1-26.9-26.9l0,0c0-14.8,12.1-26.9,26.9-26.9h776.8
					c14.8,0,26.9,12.1,26.9,26.9l0,0C1303.7,1050,1291.6,1062.1,1276.8,1062.1z"/>
				<path class="st1" d="M1176.9,1169.7H624.5c-14.8,0-26.9-12.1-26.9-26.9l0,0c0-14.8,12.1-26.9,26.9-26.9h552.4
					c14.8,0,26.9,12.1,26.9,26.9l0,0C1203.8,1157.6,1191.7,1169.7,1176.9,1169.7z"/>
				<path class="st1" d="M900.7,1089L900.7,1089c0-14.8,12.1-26.9,26.9-26.9H662.9c14.8,0,26.9,12.1,26.9,26.9l0,0
					c0,14.8-12.1,26.9-26.9,26.9h264.7C912.8,1115.9,900.7,1103.8,900.7,1089z"/>
			</g>
		</g>
	</g>
	<g>
		<defs>
			<rect id="SVGID_00000093137996249869105180000012835648282119318678_" x="2.9" y="5.9" width="1557.8" height="1101.5"/>
		</defs>
		<clipPath id="SVGID_00000067200938656129585560000015195835131485739160_">
			<use xlink:href="#SVGID_00000093137996249869105180000012835648282119318678_"  style="overflow:visible;"/>
		</clipPath>
		<g style="clip-path:url(#SVGID_00000067200938656129585560000015195835131485739160_);">
			<g>
				<path class="st1" d="M62.2,841.5h-516.6c-14.8,0-26.9-12.1-26.9-26.9l0,0c0-14.8,12.1-26.9,26.9-26.9H62.2
					c14.8,0,26.9,12.1,26.9,26.9l0,0C89.1,829.4,77,841.5,62.2,841.5z"/>
				<path class="st1" d="M222.5,949h-552.4c-14.8,0-26.9-12.1-26.9-26.9l0,0c0-14.8,12.1-26.9,26.9-26.9h552.4
					c14.8,0,26.9,12.1,26.9,26.9l0,0C249.4,936.9,237.3,949,222.5,949z"/>
				<path class="st1" d="M-53.7,868.4L-53.7,868.4c0-14.8,12.1-26.9,26.9-26.9h-264.7c14.8,0,26.9,12.1,26.9,26.9l0,0
					c0,14.8-12.1,26.9-26.9,26.9h264.7C-41.6,895.3-53.7,883.2-53.7,868.4z"/>
			</g>
		</g>
	</g>
	<g>
		<defs>
			<rect id="SVGID_00000019673552421204413080000017929617960464649631_" x="2.9" y="5.9" width="1557.8" height="1101.5"/>
		</defs>
		<clipPath id="SVGID_00000030467659453660024420000003747285282966748591_">
			<use xlink:href="#SVGID_00000019673552421204413080000017929617960464649631_"  style="overflow:visible;"/>
		</clipPath>
		<g style="clip-path:url(#SVGID_00000030467659453660024420000003747285282966748591_);">
			<g>
				<path class="st1" d="M1912.6,671.5H1396c-14.8,0-26.9-12.1-26.9-26.9l0,0c0-14.8,12.1-26.9,26.9-26.9h516.6
					c14.8,0,26.9,12.1,26.9,26.9l0,0C1939.5,659.4,1927.4,671.5,1912.6,671.5z"/>
				<path class="st1" d="M2072.9,779h-552.4c-14.8,0-26.9-12.1-26.9-26.9l0,0c0-14.8,12.1-26.9,26.9-26.9h552.4
					c14.8,0,26.9,12.1,26.9,26.9l0,0C2099.8,766.9,2087.7,779,2072.9,779z"/>
				<path class="st1" d="M1796.7,698.4L1796.7,698.4c0-14.8,12.1-26.9,26.9-26.9h-264.7c14.8,0,26.9,12.1,26.9,26.9l0,0
					c0,14.8-12.1,26.9-26.9,26.9h264.7C1808.8,725.3,1796.7,713.2,1796.7,698.4z"/>
			</g>
		</g>
	</g>
	<g>
		<defs>
			<rect id="SVGID_00000164507857195403521890000002505877117582561466_" x="2.9" y="5.9" width="1557.8" height="1101.5"/>
		</defs>
		<clipPath id="SVGID_00000021810217949338622640000013123963544482178699_">
			<use xlink:href="#SVGID_00000164507857195403521890000002505877117582561466_"  style="overflow:visible;"/>
		</clipPath>
		<g style="clip-path:url(#SVGID_00000021810217949338622640000013123963544482178699_);">
			<g>
				<path class="st1" d="M1175.7,58.8H659.1c-14.8,0-26.9-12.1-26.9-26.9l0,0c0-14.8,12.1-26.9,26.9-26.9h516.6
					c14.8,0,26.9,12.1,26.9,26.9l0,0C1202.5,46.7,1190.4,58.8,1175.7,58.8z"/>
				<path class="st1" d="M1335.9,166.4H783.5c-14.8,0-26.9-12.1-26.9-26.9l0,0c0-14.8,12.1-26.9,26.9-26.9h552.4
					c14.8,0,26.9,12.1,26.9,26.9l0,0C1362.8,154.3,1350.7,166.4,1335.9,166.4z"/>
				<path class="st1" d="M1059.7,85.7L1059.7,85.7c0-14.8,12.1-26.9,26.9-26.9H821.9c14.8,0,26.9,12.1,26.9,26.9l0,0
					c0,14.8-12.1,26.9-26.9,26.9h264.7C1071.8,112.6,1059.7,100.5,1059.7,85.7z"/>
			</g>
		</g>
	</g>
	<g>
		<defs>
			<rect id="SVGID_00000005981300788959932610000004311076802229889665_" x="2.9" y="5.9" width="1557.8" height="1101.5"/>
		</defs>
		<clipPath id="SVGID_00000059297927954512581320000000214844296768551566_">
			<use xlink:href="#SVGID_00000005981300788959932610000004311076802229889665_"  style="overflow:visible;"/>
		</clipPath>
		<g style="clip-path:url(#SVGID_00000059297927954512581320000000214844296768551566_);">
			<g>
				<path class="st1" d="M128.1,425.9h742.6c14.8,0,26.9-12.1,26.9-26.9l0,0c0-14.8-12.1-26.9-26.9-26.9H128.1
					c-14.8,0-26.9,12.1-26.9,26.9l0,0C101.2,413.8,113.3,425.9,128.1,425.9z"/>
				<path class="st1" d="M141.6,533.4h380.8c14.8,0,26.9-12.1,26.9-26.9l0,0c0-14.8-12.1-26.9-26.9-26.9H141.6
					c-14.8,0-26.9,12.1-26.9,26.9l0,0C114.7,521.3,126.8,533.4,141.6,533.4z"/>
				<path class="st1" d="M317.8,452.7L317.8,452.7c0-14.8-12.1-26.9-26.9-26.9H484c-14.8,0-26.9,12.1-26.9,26.9l0,0
					c0,14.8,12.1,26.9,26.9,26.9H290.9C305.7,479.6,317.8,467.5,317.8,452.7z"/>
			</g>
		</g>
	</g>
</g>
</svg>
