<?xml version="1.0" encoding="utf-8"?>
<!-- Generator: Adobe Illustrator 27.0.0, SVG Export Plug-In . SVG Version: 6.00 Build 0)  -->
<svg version="1.1" id="Layer_1" xmlns="http://www.w3.org/2000/svg" xmlns:xlink="http://www.w3.org/1999/xlink" x="0px" y="0px"
	 viewBox="0 0 431.7 416.8" style="enable-background:new 0 0 431.7 416.8;" xml:space="preserve">
<style type="text/css">
	.st0{fill:#010101;}
	.st1{fill:#BBBBBB;}
</style>
<g>
	<g>
		<rect x="271.8" y="126.1" class="st0" width="13.8" height="166.2"/>
		<g>
			<path class="st0" d="M220,129.1v-14.8c0-5.6,4.5-10.1,10.1-10.1h97.3c5.6,0,10.1,4.5,10.1,10.1v14.8c0,5.6-4.5,10.1-10.1,10.1
				H230C224.5,139.2,220,134.7,220,129.1z"/>
			<path class="st0" d="M244.5,65.7L244.5,65.7c0-11.3,9.1-20.4,20.4-20.4h27.6c11.3,0,20.4,9.1,20.4,20.4l0,0
				c0,3.2-2.6,5.9-5.9,5.9h-56.7C247.1,71.5,244.5,68.9,244.5,65.7z"/>
			<path class="st1" d="M220,88.4L220,88.4c0-5,4.1-9.1,9.1-9.1h99.3c5,0,9.1,4.1,9.1,9.1l0,0c0,5-4.1,9.1-9.1,9.1h-99.3
				C224.1,97.5,220,93.5,220,88.4z"/>
		</g>
	</g>
	<path class="st0" d="M337.4,288.5v14.8c0,5.6-4.5,10.1-10.1,10.1H230c-5.6,0-10.1-4.5-10.1-10.1v-14.8c0-5.6,4.5-10.1,10.1-10.1
		h97.3C332.9,278.5,337.4,283,337.4,288.5z"/>
	<path class="st0" d="M312.9,352L312.9,352c0,11.3-9.1,20.4-20.4,20.4h-27.6c-11.3,0-20.4-9.1-20.4-20.4l0,0c0-3.2,2.6-5.9,5.9-5.9
		h56.7C310.3,346.1,312.9,348.7,312.9,352z"/>
	<path class="st1" d="M337.4,329.2L337.4,329.2c0,5-4.1,9.1-9.1,9.1h-99.3c-5,0-9.1-4.1-9.1-9.1l0,0c0-5,4.1-9.1,9.1-9.1h99.3
		C333.4,320.1,337.4,324.2,337.4,329.2z"/>
</g>
<g>
	<g>
		<g>
			<path class="st0" d="M165.9,113.7h-8c-1.2,0-2.1-0.9-2.1-2.1c0-1.2,0.9-2.1,2.1-2.1h8c7.2,0,13-5.8,13-13c0-7.2-5.8-13-13-13
				h-23.4c-1.2,0-2.1-0.9-2.1-2.1s0.9-2.1,2.1-2.1h23.4c9.5,0,17.2,7.7,17.2,17.2S175.4,113.7,165.9,113.7z"/>
		</g>
		<g>
			<rect x="127.2" y="91" class="st1" width="30.7" height="20.6"/>
		</g>
		<g>
			<g>
				<path class="st1" d="M148.3,81.5h-11.3c-1,0-1.8,0.8-1.8,1.8v17.1c0,1,0.8,1.8,1.8,1.8h11.3c1,0,1.8-0.8,1.8-1.8V83.2
					C150,82.3,149.2,81.5,148.3,81.5z"/>
			</g>
		</g>
		<g>
			<path class="st0" d="M162,91h-38.9c-0.7,0-1.2,0.5-1.2,1.2v7.9c0,0.7,0.5,1.2,1.2,1.2H162c0.7,0,1.2-0.5,1.2-1.2v-7.9
				C163.2,91.6,162.7,91,162,91z"/>
		</g>
		<g>
			<g>
				<path class="st0" d="M189.6,172.9v-23.6c0-3.9-1.5-7.6-4.3-10.3l-27.4-27.4h-15.4h-15.4L99.8,139c-2.7,2.7-4.3,6.5-4.3,10.3
					v23.6c0,1.8,1.4,3.2,3.2,3.2l0,0c1.8,0,3.2,1.4,3.2,3.2v43c0,1.8-1.4,3.2-3.2,3.2l0,0c-1.8,0-3.2,1.4-3.2,3.2v129.6
					c0,7.8,6.3,14.1,14.1,14.1h65.8c7.8,0,14.1-6.3,14.1-14.1V228.7c0-1.8-1.4-3.2-3.2-3.2l0,0c-1.8,0-3.2-1.4-3.2-3.2v-43
					c0-1.8,1.4-3.2,3.2-3.2l0,0C188.2,176.1,189.6,174.7,189.6,172.9z"/>
			</g>
		</g>
	</g>
	<path class="st1" d="M98.7,225.5h87.7c-1.8,0-3.2-1.4-3.2-3.2v-43c0-1.8,1.4-3.2,3.2-3.2H98.7c1.8,0,3.2,1.4,3.2,3.2v43
		C101.9,224.1,100.5,225.5,98.7,225.5z"/>
</g>
</svg>
