<?xml version="1.0" encoding="utf-8"?>
<!-- Generator: Adobe Illustrator 27.0.0, SVG Export Plug-In . SVG Version: 6.00 Build 0)  -->
<svg version="1.1" id="Layer_1" xmlns="http://www.w3.org/2000/svg" xmlns:xlink="http://www.w3.org/1999/xlink" x="0px" y="0px"
	 viewBox="0 0 431.7 416.8" style="enable-background:new 0 0 431.7 416.8;" xml:space="preserve">
<style type="text/css">
	.st0{fill:#010101;}
	.st1{fill:#BBBBBB;}
	.st2{fill:#FFFFFF;}
	.st3{fill:#E6346E;}
</style>
<g>
	<g>
		<rect x="202.1" y="70.5" class="st0" width="33.5" height="43.4"/>
		<path class="st1" d="M243.7,79.8H194c-5.4,0-9.8-4.4-9.8-9.8l0,0c0-5.4,4.4-9.8,9.8-9.8h49.6c5.4,0,9.8,4.4,9.8,9.8l0,0
			C253.5,75.4,249.1,79.8,243.7,79.8z"/>
	</g>
	<g>
		
			<rect x="298.2" y="126" transform="matrix(0.7071 -0.7071 0.7071 0.7071 -5.1569 260.3054)" class="st0" width="26.8" height="20.7"/>
		<path class="st1" d="M327.9,141.8l-21.7-21.7c-2.4-2.4-2.4-6.2,0-8.6l0,0c2.4-2.4,6.2-2.4,8.6,0l21.7,21.7c2.4,2.4,2.4,6.2,0,8.6
			l0,0C334.1,144.2,330.3,144.2,327.9,141.8z"/>
	</g>
	<g>
		<circle class="st0" cx="216.5" cy="230.2" r="127.3"/>
		<circle class="st2" cx="216.5" cy="230.2" r="111.3"/>
		<g>
			<rect x="217" y="127.8" class="st0" width="3.8" height="25.8"/>
			<rect x="217" y="306.7" class="st0" width="3.8" height="25.8"/>
			<rect x="295.4" y="228.3" class="st0" width="25.8" height="3.8"/>
			<rect x="116.5" y="228.3" class="st0" width="25.8" height="3.8"/>
			
				<rect x="250.5" y="150.7" transform="matrix(0.498 -0.8672 0.8672 0.498 -8.542126e-02 305.0074)" class="st0" width="25.8" height="3.8"/>
			
				<rect x="161.4" y="305.8" transform="matrix(0.4979 -0.8672 0.8672 0.4979 -179.3629 305.6849)" class="st0" width="25.8" height="3.8"/>
			
				<rect x="294.5" y="261.8" transform="matrix(0.4979 -0.8672 0.8672 0.4979 -89.3994 394.9944)" class="st0" width="3.8" height="25.8"/>
			
				<rect x="139.4" y="172.7" transform="matrix(0.498 -0.8672 0.8672 0.498 -90.0363 215.6932)" class="st0" width="3.8" height="25.8"/>
			
				<rect x="283.2" y="183.2" transform="matrix(0.8637 -0.504 0.504 0.8637 -52.912 174.4876)" class="st0" width="25.8" height="3.8"/>
			
				<rect x="128.7" y="273.4" transform="matrix(0.8637 -0.504 0.504 0.8637 -119.4301 108.8793)" class="st0" width="25.8" height="3.8"/>
			
				<rect x="262.1" y="294.5" transform="matrix(0.8637 -0.504 0.504 0.8637 -118.9657 174.9337)" class="st0" width="3.8" height="25.8"/>
			
				<rect x="171.9" y="140" transform="matrix(0.8637 -0.5041 0.5041 0.8637 -53.3795 108.4346)" class="st0" width="3.8" height="25.8"/>
		</g>
		<polygon class="st0" points="234.4,244.1 230.5,248.8 201.8,220.8 173,192.9 205.6,216.2 238.2,239.5 		"/>
		<polygon class="st3" points="218.9,248.6 212.8,248.6 215.8,203.5 218.9,158.5 221.9,203.5 224.9,248.6 		"/>
	</g>
</g>
</svg>
